<svg xmlns="http://www.w3.org/2000/svg" xmlns:xlink="http://www.w3.org/1999/xlink" width="512" zoomAndPan="magnify" viewBox="0 0 384 479.999983" height="640" preserveAspectRatio="xMidYMid meet" version="1.0"><path d="M 233.667969 145.40625 L 234.976562 145.40625 C 235.304688 145.40625 235.621094 145.34375 235.921875 145.21875 C 236.226562 145.089844 236.492188 144.914062 236.726562 144.679688 C 236.957031 144.449219 237.136719 144.179688 237.261719 143.878906 C 237.386719 143.574219 237.449219 143.261719 237.449219 142.933594 C 237.449219 142.605469 237.386719 142.289062 237.261719 141.984375 C 237.136719 141.683594 236.957031 141.414062 236.726562 141.183594 C 236.492188 140.949219 236.226562 140.773438 235.921875 140.644531 C 235.621094 140.519531 235.304688 140.457031 234.976562 140.457031 L 233.667969 140.457031 C 232.90625 140.457031 232.15625 140.367188 231.417969 140.191406 C 230.675781 140.015625 229.96875 139.753906 229.289062 139.410156 C 228.609375 139.070312 227.976562 138.652344 227.394531 138.164062 C 226.8125 137.671875 226.292969 137.121094 225.839844 136.511719 C 225.644531 136.25 225.402344 136.039062 225.125 135.871094 C 224.84375 135.707031 224.542969 135.597656 224.21875 135.550781 C 223.894531 135.503906 223.578125 135.523438 223.261719 135.601562 C 222.945312 135.679688 222.65625 135.816406 222.394531 136.011719 C 222.128906 136.207031 221.914062 136.445312 221.746094 136.722656 C 221.578125 137.003906 221.46875 137.304688 221.421875 137.625 C 221.371094 137.949219 221.386719 138.269531 221.460938 138.585938 C 221.539062 138.902344 221.675781 139.191406 221.867188 139.457031 C 222.550781 140.378906 223.332031 141.207031 224.210938 141.945312 C 225.089844 142.683594 226.039062 143.3125 227.0625 143.828125 C 228.089844 144.34375 229.160156 144.734375 230.273438 145.003906 C 231.390625 145.269531 232.523438 145.402344 233.667969 145.40625 Z M 233.667969 145.40625 " fill="#E1AC33" fill="#E1AC33" fill-opacity="1" fill-rule="nonzero"/><path  d="M 228.054688 135.511719 L 237.945312 135.511719 C 238.273438 135.511719 238.585938 135.449219 238.890625 135.320312 C 239.195312 135.195312 239.460938 135.019531 239.691406 134.785156 C 239.925781 134.554688 240.101562 134.285156 240.226562 133.984375 C 240.355469 133.679688 240.417969 133.363281 240.417969 133.035156 L 240.417969 118.195312 C 240.417969 117.867188 240.355469 117.550781 240.230469 117.246094 C 240.101562 116.945312 239.925781 116.675781 239.691406 116.445312 C 239.460938 116.214844 239.195312 116.035156 238.890625 115.910156 C 238.585938 115.785156 238.273438 115.71875 237.945312 115.71875 C 237.617188 115.71875 237.300781 115.785156 237 115.910156 C 236.695312 116.035156 236.429688 116.214844 236.195312 116.445312 C 235.964844 116.675781 235.785156 116.945312 235.660156 117.246094 C 235.535156 117.550781 235.472656 117.867188 235.472656 118.195312 L 235.472656 130.5625 L 228.054688 130.5625 C 227.726562 130.5625 227.414062 130.625 227.109375 130.75 C 226.808594 130.875 226.539062 131.054688 226.308594 131.289062 C 226.074219 131.519531 225.898438 131.785156 225.773438 132.089844 C 225.644531 132.394531 225.582031 132.707031 225.582031 133.035156 C 225.582031 133.363281 225.644531 133.679688 225.773438 133.984375 C 225.898438 134.285156 226.074219 134.554688 226.308594 134.785156 C 226.539062 135.019531 226.808594 135.195312 227.109375 135.320312 C 227.414062 135.449219 227.726562 135.511719 228.054688 135.511719 Z M 228.054688 135.511719 " fill="#E1AC33" fill-opacity="1" fill-rule="nonzero"/><path  d="M 312.328125 123.890625 C 312.558594 124.125 312.828125 124.304688 313.128906 124.429688 C 313.433594 124.554688 313.746094 124.617188 314.074219 124.617188 C 314.402344 124.617188 314.71875 124.554688 315.023438 124.429688 C 315.324219 124.304688 315.59375 124.125 315.824219 123.890625 L 335.167969 104.535156 C 335.8125 103.886719 336.386719 103.179688 336.890625 102.417969 C 337.398438 101.65625 337.824219 100.851562 338.171875 100.003906 C 338.519531 99.160156 338.777344 98.289062 338.957031 97.390625 C 339.132812 96.492188 339.21875 95.585938 339.214844 94.671875 C 339.214844 93.757812 339.125 92.851562 338.945312 91.953125 C 338.765625 91.058594 338.5 90.1875 338.148438 89.34375 C 337.796875 88.496094 337.367188 87.695312 336.859375 86.933594 C 336.351562 86.175781 335.773438 85.472656 335.128906 84.824219 C 334.480469 84.179688 333.777344 83.601562 333.019531 83.09375 C 332.257812 82.582031 331.457031 82.152344 330.613281 81.804688 C 329.769531 81.453125 328.898438 81.1875 328.003906 81.007812 C 327.105469 80.828125 326.203125 80.738281 325.289062 80.734375 C 324.375 80.734375 323.46875 80.820312 322.570312 80.996094 C 321.675781 81.171875 320.804688 81.433594 319.957031 81.78125 C 319.113281 82.128906 318.308594 82.554688 317.546875 83.0625 C 316.785156 83.566406 316.078125 84.140625 315.429688 84.785156 L 314.078125 86.140625 L 312.722656 84.785156 C 312.074219 84.136719 311.371094 83.558594 310.609375 83.050781 C 309.847656 82.539062 309.042969 82.109375 308.195312 81.761719 C 307.347656 81.410156 306.476562 81.144531 305.578125 80.964844 C 304.679688 80.789062 303.773438 80.699219 302.855469 80.699219 C 301.941406 80.699219 301.03125 80.789062 300.132812 80.96875 C 299.234375 81.144531 298.363281 81.410156 297.515625 81.761719 C 296.671875 82.113281 295.867188 82.542969 295.105469 83.050781 C 294.34375 83.5625 293.636719 84.140625 292.988281 84.789062 C 292.34375 85.4375 291.761719 86.140625 291.253906 86.90625 C 290.746094 87.667969 290.316406 88.472656 289.964844 89.316406 C 289.613281 90.164062 289.347656 91.039062 289.171875 91.9375 C 288.992188 92.835938 288.902344 93.746094 288.902344 94.660156 C 288.902344 95.578125 288.992188 96.484375 289.167969 97.386719 C 289.347656 98.285156 289.613281 99.15625 289.964844 100.003906 C 290.3125 100.851562 290.742188 101.65625 291.25 102.417969 C 291.761719 103.179688 292.339844 103.886719 292.988281 104.535156 Z M 312.328125 123.890625 " fill="#E1AC33" fill-opacity="1" fill-rule="nonzero"/><path  d="M 284.453125 152.71875 C 284.683594 152.953125 284.949219 153.132812 285.253906 153.257812 C 285.558594 153.382812 285.871094 153.445312 286.199219 153.445312 C 286.527344 153.445312 286.84375 153.382812 287.148438 153.257812 C 287.449219 153.132812 287.71875 152.953125 287.949219 152.71875 L 295.515625 145.148438 C 295.828125 144.835938 296.105469 144.496094 296.355469 144.132812 C 296.601562 143.765625 296.8125 143.378906 296.988281 142.972656 C 297.164062 142.566406 297.296875 142.148438 297.390625 141.714844 C 297.484375 141.28125 297.539062 140.84375 297.550781 140.402344 C 297.5625 139.960938 297.53125 139.523438 297.457031 139.085938 C 297.386719 138.648438 297.273438 138.222656 297.121094 137.808594 C 296.96875 137.394531 296.777344 136.996094 296.546875 136.617188 C 296.320312 136.238281 296.058594 135.886719 295.761719 135.558594 C 295.464844 135.230469 295.140625 134.929688 294.789062 134.664062 C 294.433594 134.398438 294.0625 134.167969 293.664062 133.972656 C 293.269531 133.777344 292.855469 133.621094 292.429688 133.503906 C 292.003906 133.386719 291.570312 133.308594 291.128906 133.277344 C 290.6875 133.242188 290.25 133.25 289.808594 133.300781 C 289.371094 133.347656 288.9375 133.4375 288.515625 133.570312 C 288.09375 133.703125 287.6875 133.871094 287.300781 134.082031 C 286.910156 134.289062 286.542969 134.535156 286.199219 134.8125 C 285.855469 134.535156 285.492188 134.289062 285.101562 134.082031 C 284.710938 133.871094 284.304688 133.699219 283.882812 133.570312 C 283.460938 133.4375 283.03125 133.347656 282.589844 133.296875 C 282.152344 133.246094 281.710938 133.238281 281.269531 133.273438 C 280.828125 133.308594 280.394531 133.382812 279.96875 133.5 C 279.542969 133.617188 279.132812 133.773438 278.734375 133.96875 C 278.335938 134.164062 277.960938 134.394531 277.609375 134.660156 C 277.257812 134.929688 276.933594 135.226562 276.636719 135.554688 C 276.339844 135.882812 276.078125 136.238281 275.847656 136.617188 C 275.621094 136.996094 275.429688 137.390625 275.277344 137.804688 C 275.125 138.222656 275.011719 138.648438 274.9375 139.085938 C 274.867188 139.519531 274.835938 139.960938 274.847656 140.402344 C 274.859375 140.84375 274.914062 141.28125 275.007812 141.714844 C 275.101562 142.144531 275.234375 142.566406 275.410156 142.972656 C 275.585938 143.378906 275.796875 143.765625 276.046875 144.132812 C 276.292969 144.496094 276.574219 144.835938 276.886719 145.148438 Z M 284.453125 152.71875 " fill="#E1AC33" fill-opacity="1" fill-rule="nonzero"/><path  d="M 104.890625 139.734375 C 105.125 139.964844 105.390625 140.144531 105.695312 140.269531 C 105.996094 140.394531 106.3125 140.457031 106.640625 140.457031 C 106.96875 140.457031 107.285156 140.394531 107.585938 140.269531 C 107.890625 140.144531 108.15625 139.964844 108.386719 139.734375 L 120.164062 127.949219 C 120.605469 127.507812 120.996094 127.03125 121.34375 126.511719 C 121.6875 125.996094 121.980469 125.449219 122.21875 124.875 C 122.457031 124.300781 122.632812 123.710938 122.757812 123.097656 C 122.878906 122.488281 122.9375 121.875 122.9375 121.25 C 122.9375 120.628906 122.878906 120.015625 122.757812 119.402344 C 122.632812 118.792969 122.453125 118.203125 122.21875 117.628906 C 121.980469 117.054688 121.6875 116.507812 121.34375 115.992188 C 120.996094 115.472656 120.605469 114.996094 120.164062 114.554688 C 119.726562 114.117188 119.246094 113.722656 118.730469 113.378906 C 118.214844 113.03125 117.667969 112.742188 117.09375 112.503906 C 116.519531 112.265625 115.929688 112.085938 115.320312 111.964844 C 114.710938 111.84375 114.09375 111.78125 113.472656 111.78125 C 112.851562 111.78125 112.234375 111.84375 111.625 111.964844 C 111.015625 112.085938 110.425781 112.265625 109.851562 112.503906 C 109.277344 112.742188 108.730469 113.03125 108.214844 113.378906 C 107.699219 113.722656 107.21875 114.117188 106.78125 114.554688 L 106.640625 114.695312 L 106.5 114.554688 C 106.058594 114.121094 105.582031 113.730469 105.066406 113.386719 C 104.546875 113.046875 104.003906 112.757812 103.429688 112.523438 C 102.855469 112.285156 102.265625 112.109375 101.660156 111.992188 C 101.050781 111.871094 100.4375 111.8125 99.816406 111.8125 C 99.199219 111.816406 98.585938 111.878906 97.976562 112 C 97.371094 112.121094 96.78125 112.300781 96.207031 112.539062 C 95.636719 112.777344 95.09375 113.070312 94.578125 113.414062 C 94.0625 113.757812 93.585938 114.148438 93.148438 114.589844 C 92.710938 115.027344 92.320312 115.503906 91.972656 116.019531 C 91.628906 116.535156 91.339844 117.078125 91.101562 117.648438 C 90.863281 118.222656 90.683594 118.8125 90.5625 119.417969 C 90.4375 120.027344 90.378906 120.640625 90.375 121.261719 C 90.375 121.882812 90.433594 122.496094 90.550781 123.105469 C 90.671875 123.710938 90.847656 124.304688 91.082031 124.875 C 91.316406 125.449219 91.605469 125.996094 91.949219 126.511719 C 92.289062 127.027344 92.679688 127.507812 93.113281 127.949219 Z M 104.890625 139.734375 " fill="#E1AC33" fill-opacity="1" fill-rule="nonzero"/><path  d="M 356.496094 327.644531 L 339.742188 190.21875 C 339.636719 189.367188 339.492188 188.519531 339.3125 187.679688 C 339.132812 186.835938 338.914062 186.003906 338.65625 185.183594 C 338.402344 184.363281 338.109375 183.554688 337.777344 182.761719 C 337.449219 181.964844 337.085938 181.1875 336.683594 180.425781 C 336.285156 179.664062 335.851562 178.921875 335.382812 178.199219 C 334.917969 177.476562 334.417969 176.777344 333.886719 176.101562 C 333.355469 175.425781 332.796875 174.773438 332.207031 174.148438 C 331.617188 173.519531 331 172.921875 330.359375 172.351562 C 329.714844 171.78125 329.046875 171.242188 328.351562 170.730469 C 327.660156 170.222656 326.945312 169.746094 326.210938 169.300781 C 325.472656 168.855469 324.71875 168.445312 323.945312 168.066406 C 323.175781 167.691406 322.386719 167.351562 321.582031 167.046875 C 320.777344 166.742188 319.960938 166.472656 319.132812 166.242188 C 318.304688 166.011719 317.46875 165.816406 316.621094 165.664062 C 315.777344 165.507812 314.925781 165.390625 314.070312 165.3125 C 313.214844 165.234375 312.355469 165.195312 311.496094 165.195312 L 230.527344 165.195312 L 230.527344 160.246094 L 253.828125 160.246094 C 254.476562 160.246094 255.125 160.210938 255.773438 160.136719 C 256.417969 160.066406 257.058594 159.957031 257.691406 159.808594 C 258.324219 159.664062 258.949219 159.484375 259.5625 159.269531 C 260.175781 159.054688 260.777344 158.804688 261.363281 158.519531 C 261.949219 158.238281 262.515625 157.921875 263.066406 157.574219 C 263.613281 157.226562 264.144531 156.847656 264.652344 156.441406 C 265.160156 156.035156 265.640625 155.601562 266.101562 155.140625 C 266.558594 154.679688 266.988281 154.191406 267.394531 153.683594 C 267.796875 153.171875 268.171875 152.640625 268.515625 152.089844 C 268.859375 151.535156 269.171875 150.964844 269.449219 150.378906 C 269.730469 149.789062 269.976562 149.191406 270.1875 148.574219 C 270.398438 147.960938 270.574219 147.332031 270.71875 146.699219 C 270.859375 146.0625 270.964844 145.421875 271.035156 144.773438 C 271.101562 144.128906 271.136719 143.480469 271.132812 142.828125 C 271.128906 142.179688 271.085938 141.53125 271.011719 140.882812 C 270.933594 140.238281 270.820312 139.597656 270.671875 138.964844 L 261.363281 99.371094 C 260.964844 97.671875 260.445312 96.007812 259.804688 94.378906 C 259.167969 92.753906 258.417969 91.183594 257.554688 89.664062 C 256.691406 88.144531 255.722656 86.695312 254.652344 85.316406 C 253.582031 83.9375 252.417969 82.640625 251.160156 81.429688 C 249.902344 80.214844 248.566406 79.097656 247.148438 78.078125 C 245.730469 77.058594 244.25 76.144531 242.699219 75.335938 C 241.152344 74.527344 239.554688 73.832031 237.90625 73.253906 C 236.261719 72.675781 234.582031 72.21875 232.867188 71.878906 C 231.152344 71.542969 229.425781 71.328125 227.683594 71.238281 C 225.9375 71.148438 224.195312 71.183594 222.457031 71.34375 C 220.71875 71.503906 219 71.789062 217.304688 72.195312 C 215.605469 72.601562 213.945312 73.128906 212.324219 73.773438 C 210.699219 74.417969 209.132812 75.175781 207.617188 76.046875 C 206.101562 76.914062 204.660156 77.890625 203.285156 78.964844 C 201.910156 80.042969 200.617188 81.214844 199.410156 82.476562 C 198.207031 83.738281 197.09375 85.082031 196.078125 86.503906 L 170.164062 122.796875 C 169.535156 123.679688 168.972656 124.597656 168.46875 125.558594 C 167.964844 126.515625 167.53125 127.503906 167.164062 128.523438 C 166.796875 129.542969 166.5 130.582031 166.273438 131.640625 C 166.050781 132.699219 165.898438 133.769531 165.820312 134.847656 C 165.742188 135.929688 165.738281 137.007812 165.808594 138.089844 C 165.878906 139.167969 166.019531 140.242188 166.238281 141.300781 C 166.453125 142.363281 166.742188 143.402344 167.101562 144.425781 C 167.460938 145.445312 167.886719 146.4375 168.382812 147.402344 C 168.878906 148.363281 169.4375 149.289062 170.058594 150.175781 C 170.679688 151.058594 171.359375 151.898438 172.097656 152.691406 C 172.832031 153.484375 173.621094 154.222656 174.457031 154.910156 C 175.296875 155.59375 176.175781 156.21875 177.101562 156.78125 C 178.023438 157.347656 178.984375 157.84375 179.976562 158.277344 C 180.964844 158.707031 181.984375 159.070312 183.023438 159.363281 C 184.066406 159.65625 185.125 159.878906 186.195312 160.027344 C 187.269531 160.171875 188.34375 160.246094 189.425781 160.246094 L 205.804688 160.246094 L 205.804688 165.195312 L 88.441406 165.195312 C 87.5625 165.191406 86.6875 165.230469 85.8125 165.304688 C 84.9375 165.382812 84.066406 165.503906 83.203125 165.660156 C 82.339844 165.820312 81.484375 166.019531 80.640625 166.257812 C 79.792969 166.496094 78.960938 166.773438 78.140625 167.089844 C 77.320312 167.40625 76.515625 167.757812 75.730469 168.148438 C 74.941406 168.539062 74.175781 168.964844 73.429688 169.429688 C 72.679688 169.890625 71.957031 170.386719 71.257812 170.917969 C 70.554688 171.445312 69.878906 172.007812 69.230469 172.601562 C 68.582031 173.191406 67.960938 173.8125 67.371094 174.464844 C 66.78125 175.113281 66.21875 175.792969 65.691406 176.492188 C 65.164062 177.195312 64.667969 177.921875 64.207031 178.671875 C 63.746094 179.417969 63.324219 180.1875 62.933594 180.976562 C 62.542969 181.761719 62.191406 182.566406 61.878906 183.390625 C 61.5625 184.210938 61.289062 185.042969 61.050781 185.890625 C 60.8125 186.738281 60.617188 187.59375 60.460938 188.457031 C 60.300781 189.320312 60.1875 190.191406 60.109375 191.066406 L 48.164062 321.707031 C 48.058594 322.859375 48.011719 324.015625 48.027344 325.171875 C 48.042969 326.328125 48.117188 327.480469 48.25 328.632812 C 48.386719 329.78125 48.578125 330.921875 48.832031 332.050781 C 49.085938 333.179688 49.394531 334.292969 49.761719 335.390625 C 50.132812 336.488281 50.554688 337.5625 51.035156 338.613281 C 51.515625 339.667969 52.050781 340.691406 52.636719 341.691406 C 53.222656 342.6875 53.859375 343.652344 54.546875 344.582031 C 55.234375 345.515625 55.96875 346.40625 56.746094 347.261719 C 57.527344 348.117188 58.347656 348.929688 59.210938 349.699219 C 60.078125 350.46875 60.976562 351.191406 61.917969 351.867188 C 62.855469 352.542969 63.828125 353.167969 64.832031 353.742188 C 65.835938 354.316406 66.867188 354.835938 67.925781 355.304688 C 68.984375 355.773438 70.0625 356.183594 71.164062 356.539062 C 72.265625 356.894531 73.382812 357.191406 74.511719 357.429688 C 75.644531 357.667969 76.785156 357.847656 77.9375 357.96875 C 79.085938 358.085938 80.242188 358.148438 81.398438 358.148438 L 83.25 358.148438 L 83.25 365.570312 C 83.25 365.894531 83.3125 366.210938 83.4375 366.515625 C 83.566406 366.816406 83.742188 367.085938 83.976562 367.316406 C 84.207031 367.550781 84.472656 367.726562 84.777344 367.855469 C 85.082031 367.980469 85.394531 368.042969 85.722656 368.042969 L 313.164062 368.042969 C 313.492188 368.042969 313.808594 367.980469 314.109375 367.855469 C 314.414062 367.726562 314.679688 367.550781 314.914062 367.316406 C 315.144531 367.085938 315.324219 366.816406 315.449219 366.515625 C 315.574219 366.210938 315.636719 365.894531 315.636719 365.570312 L 315.636719 358.148438 L 329.5 358.148438 C 330.460938 358.148438 331.414062 358.097656 332.371094 357.996094 C 333.324219 357.894531 334.269531 357.742188 335.207031 357.542969 C 336.148438 357.339844 337.070312 357.089844 337.984375 356.789062 C 338.894531 356.492188 339.789062 356.144531 340.664062 355.75 C 341.539062 355.355469 342.390625 354.917969 343.21875 354.433594 C 344.046875 353.949219 344.847656 353.421875 345.621094 352.851562 C 346.394531 352.28125 347.136719 351.675781 347.84375 351.027344 C 348.550781 350.378906 349.222656 349.695312 349.859375 348.976562 C 350.496094 348.257812 351.09375 347.507812 351.648438 346.726562 C 352.207031 345.941406 352.722656 345.132812 353.191406 344.296875 C 353.664062 343.460938 354.089844 342.601562 354.46875 341.71875 C 354.847656 340.839844 355.183594 339.941406 355.46875 339.023438 C 355.753906 338.105469 355.988281 337.175781 356.175781 336.234375 C 356.363281 335.292969 356.5 334.34375 356.585938 333.386719 C 356.671875 332.429688 356.707031 331.472656 356.691406 330.511719 C 356.679688 329.554688 356.613281 328.597656 356.496094 327.644531 Z M 208.277344 170.144531 C 208.605469 170.144531 208.921875 170.082031 209.222656 169.953125 C 209.527344 169.828125 209.792969 169.648438 210.023438 169.417969 C 210.257812 169.1875 210.4375 168.917969 210.5625 168.617188 C 210.6875 168.3125 210.75 167.996094 210.75 167.667969 L 210.75 133.035156 C 210.75 132.707031 210.6875 132.394531 210.5625 132.089844 C 210.4375 131.785156 210.257812 131.519531 210.023438 131.289062 C 209.792969 131.054688 209.527344 130.875 209.222656 130.75 C 208.921875 130.625 208.605469 130.5625 208.277344 130.5625 C 207.789062 130.5625 207.308594 130.515625 206.832031 130.421875 C 206.351562 130.324219 205.890625 130.183594 205.4375 130 C 204.988281 129.8125 204.5625 129.582031 204.15625 129.3125 C 203.75 129.042969 203.378906 128.734375 203.03125 128.390625 C 202.6875 128.042969 202.382812 127.671875 202.109375 127.265625 C 201.839844 126.859375 201.613281 126.433594 201.425781 125.980469 C 201.238281 125.53125 201.097656 125.066406 201.003906 124.589844 C 200.90625 124.113281 200.859375 123.628906 200.859375 123.140625 C 200.859375 122.65625 200.90625 122.171875 201.003906 121.695312 C 201.097656 121.214844 201.238281 120.753906 201.425781 120.300781 C 201.613281 119.851562 201.839844 119.425781 202.109375 119.019531 C 202.382812 118.613281 202.6875 118.238281 203.03125 117.894531 C 203.378906 117.550781 203.75 117.242188 204.15625 116.972656 C 204.5625 116.699219 204.988281 116.472656 205.4375 116.285156 C 205.890625 116.097656 206.351562 115.957031 206.832031 115.863281 C 207.308594 115.769531 207.789062 115.71875 208.277344 115.71875 C 209.917969 115.714844 211.394531 116.203125 212.703125 117.1875 C 213.132812 117.507812 213.609375 117.671875 214.140625 117.679688 C 214.675781 117.691406 215.160156 117.542969 215.597656 117.238281 C 217.859375 115.664062 220.003906 113.941406 222.035156 112.070312 C 225.667969 108.730469 228.847656 105 231.570312 100.878906 C 232.074219 102.632812 232.757812 104.3125 233.613281 105.925781 C 234.472656 107.539062 235.484375 109.042969 236.652344 110.445312 C 237.824219 111.84375 239.125 113.109375 240.558594 114.238281 C 241.992188 115.367188 243.523438 116.339844 245.160156 117.148438 L 245.359375 117.25 L 245.359375 133.035156 C 245.359375 133.71875 245.320312 134.394531 245.238281 135.070312 C 245.160156 135.746094 245.039062 136.417969 244.878906 137.078125 C 244.722656 137.738281 244.523438 138.390625 244.289062 139.027344 C 244.054688 139.667969 243.78125 140.289062 243.472656 140.894531 C 243.164062 141.503906 242.820312 142.089844 242.441406 142.652344 C 242.0625 143.21875 241.65625 143.761719 241.210938 144.28125 C 240.769531 144.796875 240.300781 145.285156 239.800781 145.75 C 239.300781 146.210938 238.777344 146.640625 238.226562 147.042969 C 237.675781 147.441406 237.105469 147.808594 236.511719 148.140625 C 235.917969 148.472656 235.308594 148.769531 234.679688 149.03125 C 234.050781 149.292969 233.410156 149.515625 232.753906 149.699219 C 232.101562 149.886719 231.4375 150.03125 230.765625 150.136719 C 230.09375 150.246094 229.417969 150.3125 228.738281 150.339844 C 228.058594 150.367188 227.378906 150.351562 226.699219 150.300781 C 226.023438 150.246094 225.351562 150.15625 224.683594 150.023438 C 224.015625 149.890625 223.359375 149.71875 222.710938 149.507812 C 222.398438 149.40625 222.078125 149.367188 221.75 149.390625 C 221.421875 149.414062 221.113281 149.5 220.816406 149.652344 C 220.523438 149.800781 220.269531 150 220.054688 150.25 C 219.84375 150.5 219.683594 150.78125 219.582031 151.09375 C 219.480469 151.40625 219.445312 151.726562 219.46875 152.054688 C 219.496094 152.382812 219.585938 152.695312 219.734375 152.988281 C 219.886719 153.28125 220.085938 153.535156 220.335938 153.746094 C 220.589844 153.960938 220.871094 154.117188 221.183594 154.214844 C 222.617188 154.675781 224.085938 154.984375 225.582031 155.144531 L 225.582031 167.667969 C 225.582031 167.996094 225.644531 168.3125 225.769531 168.617188 C 225.894531 168.917969 226.074219 169.1875 226.304688 169.417969 C 226.539062 169.648438 226.804688 169.828125 227.109375 169.953125 C 227.410156 170.082031 227.726562 170.144531 228.054688 170.144531 L 239.78125 170.144531 C 239.707031 170.816406 239.601562 171.484375 239.464844 172.148438 C 239.328125 172.8125 239.164062 173.46875 238.964844 174.117188 C 238.769531 174.765625 238.546875 175.402344 238.292969 176.03125 C 238.035156 176.65625 237.753906 177.273438 237.445312 177.875 C 237.132812 178.476562 236.796875 179.0625 236.433594 179.632812 C 236.070312 180.207031 235.679688 180.757812 235.265625 181.292969 C 234.851562 181.832031 234.414062 182.347656 233.953125 182.84375 C 233.492188 183.335938 233.007812 183.8125 232.503906 184.261719 C 232 184.714844 231.476562 185.140625 230.933594 185.546875 C 230.386719 185.949219 229.828125 186.328125 229.25 186.679688 C 228.671875 187.03125 228.078125 187.359375 227.472656 187.65625 C 226.863281 187.953125 226.242188 188.226562 225.609375 188.464844 C 224.980469 188.707031 224.335938 188.921875 223.683594 189.105469 C 223.03125 189.285156 222.375 189.441406 221.707031 189.5625 C 221.042969 189.6875 220.371094 189.777344 219.699219 189.839844 C 219.023438 189.902344 218.347656 189.933594 217.671875 189.933594 C 216.996094 189.933594 216.320312 189.902344 215.644531 189.839844 C 214.972656 189.777344 214.300781 189.6875 213.636719 189.5625 C 212.96875 189.441406 212.3125 189.285156 211.660156 189.105469 C 211.007812 188.921875 210.367188 188.707031 209.734375 188.464844 C 209.101562 188.226562 208.480469 187.953125 207.875 187.65625 C 207.265625 187.359375 206.671875 187.03125 206.09375 186.679688 C 205.515625 186.328125 204.957031 185.949219 204.414062 185.546875 C 203.867188 185.140625 203.34375 184.714844 202.839844 184.261719 C 202.335938 183.8125 201.851562 183.335938 201.390625 182.84375 C 200.929688 182.347656 200.492188 181.832031 200.078125 181.292969 C 199.664062 180.757812 199.273438 180.207031 198.910156 179.632812 C 198.546875 179.0625 198.210938 178.476562 197.898438 177.875 C 197.589844 177.273438 197.308594 176.65625 197.054688 176.03125 C 196.800781 175.402344 196.574219 174.765625 196.378906 174.117188 C 196.183594 173.46875 196.015625 172.8125 195.878906 172.148438 C 195.742188 171.484375 195.636719 170.816406 195.5625 170.144531 Z M 65.035156 191.519531 C 65.097656 190.796875 65.195312 190.074219 65.324219 189.359375 C 65.453125 188.648438 65.617188 187.941406 65.8125 187.242188 C 66.007812 186.539062 66.234375 185.851562 66.496094 185.175781 C 66.753906 184.496094 67.046875 183.832031 67.367188 183.179688 C 67.6875 182.527344 68.039062 181.894531 68.421875 181.277344 C 68.800781 180.65625 69.210938 180.058594 69.648438 179.476562 C 70.082031 178.898438 70.546875 178.339844 71.035156 177.800781 C 71.523438 177.265625 72.035156 176.75 72.570312 176.261719 C 73.105469 175.769531 73.664062 175.308594 74.242188 174.871094 C 74.824219 174.433594 75.421875 174.023438 76.039062 173.640625 C 76.65625 173.257812 77.289062 172.90625 77.941406 172.582031 C 78.589844 172.261719 79.253906 171.96875 79.929688 171.707031 C 80.609375 171.445312 81.296875 171.21875 81.996094 171.019531 C 82.695312 170.824219 83.398438 170.660156 84.113281 170.527344 C 84.828125 170.398438 85.546875 170.300781 86.269531 170.234375 C 86.992188 170.171875 87.71875 170.140625 88.441406 170.144531 L 190.59375 170.144531 C 190.671875 170.980469 190.785156 171.808594 190.9375 172.636719 C 191.089844 173.460938 191.28125 174.277344 191.511719 175.085938 C 191.738281 175.890625 192.003906 176.6875 192.304688 177.472656 C 192.609375 178.253906 192.945312 179.023438 193.320312 179.773438 C 193.691406 180.527344 194.097656 181.257812 194.539062 181.972656 C 194.980469 182.6875 195.453125 183.378906 195.957031 184.050781 C 196.464844 184.71875 196.996094 185.367188 197.5625 185.988281 C 198.128906 186.609375 198.71875 187.203125 199.339844 187.765625 C 199.957031 188.332031 200.601562 188.871094 201.273438 189.375 C 201.941406 189.882812 202.632812 190.355469 203.34375 190.800781 C 204.058594 191.242188 204.789062 191.648438 205.539062 192.023438 C 206.292969 192.398438 207.058594 192.738281 207.839844 193.042969 C 208.621094 193.34375 209.417969 193.613281 210.222656 193.84375 C 211.03125 194.070312 211.847656 194.265625 212.671875 194.417969 C 213.496094 194.574219 214.324219 194.6875 215.160156 194.765625 C 215.996094 194.84375 216.832031 194.882812 217.671875 194.882812 C 218.511719 194.882812 219.347656 194.84375 220.183594 194.765625 C 221.019531 194.6875 221.847656 194.574219 222.671875 194.417969 C 223.496094 194.265625 224.3125 194.070312 225.121094 193.84375 C 225.925781 193.613281 226.722656 193.34375 227.503906 193.042969 C 228.285156 192.738281 229.054688 192.398438 229.804688 192.023438 C 230.554688 191.648438 231.285156 191.242188 232 190.800781 C 232.710938 190.355469 233.402344 189.882812 234.074219 189.375 C 234.742188 188.871094 235.386719 188.332031 236.003906 187.765625 C 236.625 187.203125 237.21875 186.609375 237.78125 185.988281 C 238.347656 185.367188 238.882812 184.71875 239.386719 184.050781 C 239.890625 183.378906 240.363281 182.6875 240.804688 181.972656 C 241.246094 181.257812 241.652344 180.527344 242.023438 179.773438 C 242.398438 179.023438 242.734375 178.253906 243.039062 177.472656 C 243.339844 176.6875 243.605469 175.890625 243.832031 175.085938 C 244.0625 174.277344 244.253906 173.460938 244.40625 172.636719 C 244.558594 171.808594 244.671875 170.980469 244.75 170.144531 L 311.496094 170.144531 C 312.207031 170.144531 312.917969 170.175781 313.625 170.238281 C 314.332031 170.304688 315.035156 170.402344 315.734375 170.527344 C 316.433594 170.65625 317.125 170.816406 317.808594 171.007812 C 318.492188 171.199219 319.167969 171.417969 319.832031 171.671875 C 320.496094 171.921875 321.148438 172.207031 321.785156 172.515625 C 322.425781 172.828125 323.046875 173.167969 323.65625 173.535156 C 324.261719 173.902344 324.855469 174.296875 325.425781 174.71875 C 326 175.140625 326.550781 175.585938 327.082031 176.054688 C 327.613281 176.527344 328.125 177.023438 328.609375 177.539062 C 329.097656 178.058594 329.558594 178.59375 330 179.15625 C 330.4375 179.714844 330.847656 180.292969 331.234375 180.890625 C 331.621094 181.484375 331.980469 182.097656 332.308594 182.726562 C 332.640625 183.355469 332.941406 184 333.214844 184.65625 C 333.484375 185.3125 333.726562 185.980469 333.941406 186.660156 C 334.152344 187.339844 334.332031 188.023438 334.480469 188.71875 C 334.632812 189.414062 334.75 190.113281 334.835938 190.820312 L 343.820312 264.523438 L 332.1875 265.660156 C 332.730469 264.101562 333.15625 262.511719 333.464844 260.890625 L 333.503906 260.691406 C 334.164062 257.230469 334.289062 253.75 333.878906 250.253906 C 333.464844 246.753906 332.535156 243.398438 331.085938 240.1875 L 315.421875 205.246094 C 315.285156 204.949219 315.101562 204.683594 314.863281 204.460938 C 314.625 204.234375 314.351562 204.0625 314.042969 203.945312 C 313.738281 203.828125 313.421875 203.773438 313.09375 203.785156 C 312.765625 203.792969 312.449219 203.863281 312.152344 204 C 311.851562 204.132812 311.589844 204.320312 311.363281 204.558594 C 311.140625 204.796875 310.96875 205.070312 310.851562 205.378906 C 310.734375 205.683594 310.683594 206.003906 310.691406 206.332031 C 310.703125 206.660156 310.773438 206.972656 310.910156 207.273438 L 326.574219 242.214844 C 327.816406 244.960938 328.613281 247.832031 328.964844 250.828125 C 329.320312 253.820312 329.210938 256.796875 328.648438 259.757812 L 328.609375 259.960938 C 328.171875 262.257812 327.472656 264.472656 326.511719 266.601562 C 325.550781 268.730469 324.351562 270.71875 322.917969 272.566406 C 321.484375 274.410156 319.855469 276.0625 318.03125 277.523438 C 316.203125 278.980469 314.234375 280.207031 312.117188 281.199219 C 311.683594 281.402344 311.335938 281.707031 311.078125 282.109375 C 310.820312 282.515625 310.691406 282.960938 310.691406 283.441406 L 310.691406 303.726562 L 284 303.726562 L 277.574219 289.25 C 277.089844 288.164062 276.417969 287.210938 275.558594 286.394531 C 274.695312 285.574219 273.710938 284.953125 272.601562 284.527344 C 272.183594 282.164062 271.433594 279.910156 270.347656 277.769531 C 269.21875 275.546875 267.785156 273.539062 266.046875 271.746094 C 270.269531 268.964844 273.828125 265.5 276.722656 261.355469 L 286.714844 266.355469 C 287.007812 266.503906 287.320312 266.585938 287.644531 266.609375 C 287.972656 266.632812 288.292969 266.59375 288.601562 266.488281 C 288.914062 266.386719 289.195312 266.226562 289.441406 266.011719 C 289.6875 265.796875 289.886719 265.542969 290.03125 265.25 C 290.179688 264.957031 290.265625 264.644531 290.289062 264.316406 C 290.3125 263.992188 290.269531 263.671875 290.167969 263.359375 C 290.0625 263.050781 289.902344 262.769531 289.6875 262.523438 C 289.472656 262.273438 289.21875 262.078125 288.925781 261.929688 L 279.265625 257.09375 C 280.21875 255.203125 280.988281 253.242188 281.578125 251.203125 L 289.957031 252.371094 C 290.28125 252.414062 290.601562 252.394531 290.921875 252.3125 C 291.238281 252.230469 291.527344 252.089844 291.789062 251.894531 C 292.050781 251.695312 292.265625 251.453125 292.429688 251.171875 C 292.597656 250.886719 292.703125 250.585938 292.746094 250.257812 C 292.792969 249.933594 292.773438 249.613281 292.691406 249.296875 C 292.609375 248.976562 292.46875 248.6875 292.269531 248.425781 C 292.070312 248.164062 291.832031 247.949219 291.546875 247.785156 C 291.265625 247.621094 290.960938 247.515625 290.636719 247.46875 L 282.59375 246.351562 C 282.785156 244.914062 282.878906 243.472656 282.878906 242.027344 C 282.878906 241.429688 282.859375 240.839844 282.824219 240.25 L 290.570312 239.390625 C 290.894531 239.355469 291.203125 239.257812 291.488281 239.097656 C 291.777344 238.941406 292.023438 238.734375 292.226562 238.476562 C 292.429688 238.222656 292.578125 237.933594 292.667969 237.621094 C 292.761719 237.304688 292.789062 236.984375 292.753906 236.660156 C 292.714844 236.332031 292.617188 236.027344 292.460938 235.738281 C 292.300781 235.453125 292.097656 235.207031 291.839844 235 C 291.585938 234.796875 291.300781 234.648438 290.984375 234.554688 C 290.667969 234.464844 290.347656 234.4375 290.023438 234.472656 L 282.1875 235.34375 C 281.925781 234.105469 281.597656 232.882812 281.203125 231.679688 L 289.011719 200.417969 C 289.121094 199.972656 289.171875 199.519531 289.15625 199.058594 C 289.140625 198.597656 289.066406 198.148438 288.925781 197.710938 C 288.785156 197.269531 288.585938 196.859375 288.332031 196.476562 C 288.078125 196.09375 287.773438 195.75 287.425781 195.453125 C 287.074219 195.152344 286.691406 194.90625 286.273438 194.714844 C 285.851562 194.523438 285.417969 194.394531 284.960938 194.324219 C 284.507812 194.253906 284.050781 194.246094 283.59375 194.304688 C 283.136719 194.363281 282.695312 194.484375 282.273438 194.664062 L 254.058594 206.765625 C 249.871094 205.535156 245.59375 204.90625 241.230469 204.875 C 241.105469 204.871094 240.976562 204.871094 240.859375 204.871094 C 236.363281 204.867188 231.960938 205.496094 227.644531 206.761719 L 199.4375 194.664062 C 199.015625 194.484375 198.574219 194.363281 198.117188 194.304688 C 197.664062 194.246094 197.207031 194.253906 196.75 194.324219 C 196.296875 194.394531 195.859375 194.523438 195.441406 194.714844 C 195.023438 194.90625 194.640625 195.152344 194.289062 195.449219 C 193.9375 195.75 193.636719 196.089844 193.382812 196.472656 C 193.125 196.855469 192.929688 197.269531 192.789062 197.707031 C 192.648438 198.144531 192.570312 198.59375 192.554688 199.054688 C 192.542969 199.515625 192.589844 199.96875 192.703125 200.414062 L 200.507812 231.671875 C 200.109375 232.878906 199.78125 234.101562 199.523438 235.347656 L 191.691406 234.472656 C 191.363281 234.4375 191.042969 234.464844 190.730469 234.558594 C 190.414062 234.648438 190.128906 234.796875 189.875 235 C 189.617188 235.207031 189.410156 235.453125 189.253906 235.742188 C 189.09375 236.027344 188.996094 236.335938 188.960938 236.660156 C 188.925781 236.984375 188.953125 237.304688 189.042969 237.621094 C 189.132812 237.9375 189.28125 238.222656 189.488281 238.476562 C 189.691406 238.734375 189.9375 238.941406 190.222656 239.101562 C 190.511719 239.257812 190.816406 239.355469 191.144531 239.390625 L 198.886719 240.253906 C 198.855469 240.839844 198.832031 241.433594 198.832031 242.027344 C 198.832031 242.503906 198.839844 242.980469 198.867188 243.417969 C 198.90625 244.410156 198.992188 245.386719 199.117188 246.351562 L 191.078125 247.46875 C 190.75 247.515625 190.449219 247.621094 190.164062 247.785156 C 189.882812 247.953125 189.640625 248.167969 189.445312 248.429688 C 189.246094 248.691406 189.105469 248.980469 189.023438 249.296875 C 188.941406 249.613281 188.921875 249.9375 188.964844 250.261719 C 189.011719 250.585938 189.117188 250.890625 189.28125 251.171875 C 189.449219 251.457031 189.664062 251.695312 189.925781 251.894531 C 190.1875 252.09375 190.476562 252.230469 190.792969 252.316406 C 191.109375 252.398438 191.433594 252.414062 191.757812 252.371094 L 200.125 251.207031 C 200.703125 253.246094 201.464844 255.214844 202.410156 257.113281 L 192.78125 261.933594 C 192.613281 262.011719 192.457031 262.113281 192.3125 262.230469 C 192.167969 262.347656 192.039062 262.480469 191.921875 262.628906 C 191.808594 262.777344 191.710938 262.933594 191.632812 263.101562 C 191.554688 263.273438 191.496094 263.449219 191.460938 263.632812 C 191.421875 263.8125 191.402344 264 191.40625 264.183594 C 191.410156 264.371094 191.4375 264.554688 191.480469 264.738281 C 191.527344 264.917969 191.59375 265.089844 191.679688 265.257812 C 191.765625 265.421875 191.867188 265.578125 191.988281 265.71875 C 189.84375 266.285156 187.75 267.011719 185.714844 267.894531 C 183.679688 268.78125 181.722656 269.8125 179.84375 270.992188 C 177.964844 272.175781 176.183594 273.488281 174.503906 274.941406 C 172.824219 276.390625 171.265625 277.960938 169.824219 279.648438 C 168.378906 281.335938 167.074219 283.125 165.902344 285.011719 C 164.730469 286.894531 163.710938 288.859375 162.835938 290.902344 C 161.960938 292.941406 161.246094 295.039062 160.691406 297.1875 C 160.136719 299.335938 159.742188 301.515625 159.519531 303.726562 L 107.097656 303.726562 L 115.785156 207.25 C 115.816406 206.921875 115.78125 206.601562 115.683594 206.289062 C 115.585938 205.976562 115.433594 205.695312 115.222656 205.441406 C 115.011719 205.191406 114.761719 204.988281 114.472656 204.835938 C 114.179688 204.683594 113.871094 204.59375 113.546875 204.5625 C 113.21875 204.535156 112.898438 204.566406 112.585938 204.664062 C 112.273438 204.761719 111.992188 204.917969 111.738281 205.128906 C 111.488281 205.335938 111.285156 205.585938 111.132812 205.878906 C 110.980469 206.167969 110.890625 206.476562 110.859375 206.804688 L 105.285156 268.699219 L 58.371094 264.367188 Z M 240.851562 286.566406 C 241.179688 286.566406 241.496094 286.503906 241.800781 286.378906 C 242.101562 286.253906 242.371094 286.074219 242.601562 285.84375 C 242.832031 285.613281 243.011719 285.34375 243.136719 285.042969 C 243.261719 284.738281 243.324219 284.421875 243.324219 284.09375 L 243.324219 280.371094 C 243.636719 280.550781 243.925781 280.765625 244.195312 281.007812 C 244.460938 281.253906 244.695312 281.523438 244.902344 281.820312 C 245.109375 282.113281 245.28125 282.429688 245.421875 282.761719 C 245.558594 283.097656 245.660156 283.441406 245.722656 283.796875 C 245.785156 284.152344 245.808594 284.511719 245.792969 284.871094 C 245.777344 285.234375 245.722656 285.585938 245.628906 285.9375 C 245.535156 286.285156 245.40625 286.621094 245.238281 286.941406 C 245.070312 287.261719 244.871094 287.558594 244.640625 287.835938 C 244.410156 288.113281 244.148438 288.363281 243.863281 288.582031 C 243.578125 288.800781 243.269531 288.988281 242.941406 289.140625 C 242.617188 289.292969 242.277344 289.40625 241.921875 289.488281 C 241.570312 289.566406 241.214844 289.605469 240.851562 289.605469 C 240.492188 289.605469 240.136719 289.566406 239.78125 289.488281 C 239.429688 289.40625 239.089844 289.292969 238.761719 289.140625 C 238.4375 288.988281 238.128906 288.800781 237.84375 288.582031 C 237.558594 288.363281 237.296875 288.113281 237.066406 287.835938 C 236.832031 287.558594 236.632812 287.261719 236.46875 286.941406 C 236.300781 286.621094 236.171875 286.285156 236.078125 285.9375 C 235.984375 285.585938 235.929688 285.234375 235.914062 284.871094 C 235.898438 284.511719 235.921875 284.152344 235.984375 283.796875 C 236.046875 283.441406 236.148438 283.097656 236.285156 282.761719 C 236.421875 282.429688 236.597656 282.113281 236.804688 281.820312 C 237.011719 281.523438 237.246094 281.253906 237.511719 281.007812 C 237.777344 280.765625 238.066406 280.550781 238.382812 280.371094 L 238.382812 284.09375 C 238.378906 284.421875 238.445312 284.738281 238.570312 285.042969 C 238.695312 285.34375 238.875 285.613281 239.105469 285.84375 C 239.335938 286.074219 239.605469 286.253906 239.90625 286.378906 C 240.210938 286.503906 240.523438 286.566406 240.851562 286.566406 Z M 242.761719 263.800781 L 240.851562 263.164062 L 238.945312 263.800781 C 238.074219 264.09375 237.175781 264.238281 236.257812 264.238281 C 235.503906 264.238281 234.761719 264.140625 234.03125 263.945312 C 233.304688 263.75 232.613281 263.460938 231.960938 263.082031 C 231.304688 262.707031 230.714844 262.25 230.179688 261.714844 C 229.648438 261.179688 229.195312 260.585938 228.816406 259.929688 C 228.65625 259.644531 228.554688 259.339844 228.511719 259.015625 C 228.46875 258.6875 228.492188 258.367188 228.578125 258.050781 C 228.664062 257.734375 228.808594 257.445312 229.007812 257.1875 C 229.210938 256.929688 229.453125 256.71875 229.738281 256.554688 C 230.023438 256.390625 230.328125 256.289062 230.652344 256.25 C 230.976562 256.207031 231.296875 256.230469 231.613281 256.316406 C 231.929688 256.402344 232.21875 256.546875 232.476562 256.746094 C 232.738281 256.949219 232.949219 257.191406 233.109375 257.476562 C 233.320312 257.835938 233.582031 258.152344 233.898438 258.421875 C 234.214844 258.695312 234.566406 258.902344 234.957031 259.050781 C 235.34375 259.199219 235.746094 259.28125 236.164062 259.289062 C 236.582031 259.300781 236.984375 259.238281 237.382812 259.105469 L 238.382812 258.773438 L 238.382812 256.195312 L 235.265625 249.960938 C 235.179688 249.785156 235.101562 249.605469 235.035156 249.417969 C 234.972656 249.230469 234.917969 249.042969 234.878906 248.851562 C 234.835938 248.65625 234.808594 248.460938 234.792969 248.265625 C 234.777344 248.070312 234.773438 247.875 234.78125 247.675781 C 234.789062 247.480469 234.8125 247.285156 234.847656 247.089844 C 234.878906 246.894531 234.925781 246.703125 234.984375 246.515625 C 235.042969 246.328125 235.113281 246.144531 235.191406 245.964844 C 235.273438 245.785156 235.367188 245.613281 235.46875 245.445312 C 235.574219 245.277344 235.6875 245.117188 235.8125 244.960938 C 235.9375 244.808594 236.070312 244.664062 236.210938 244.527344 C 236.355469 244.390625 236.503906 244.265625 236.664062 244.148438 C 236.820312 244.03125 236.984375 243.925781 237.15625 243.828125 C 237.332031 243.734375 237.507812 243.648438 237.691406 243.574219 C 237.875 243.5 238.058594 243.441406 238.25 243.390625 C 238.441406 243.339844 238.632812 243.304688 238.828125 243.277344 C 239.023438 243.253906 239.222656 243.242188 239.417969 243.242188 L 242.289062 243.242188 C 242.484375 243.242188 242.679688 243.253906 242.875 243.277344 C 243.070312 243.304688 243.265625 243.339844 243.457031 243.390625 C 243.644531 243.441406 243.832031 243.5 244.015625 243.574219 C 244.199219 243.648438 244.375 243.734375 244.546875 243.828125 C 244.71875 243.925781 244.886719 244.03125 245.042969 244.148438 C 245.203125 244.265625 245.351562 244.390625 245.496094 244.527344 C 245.636719 244.664062 245.769531 244.808594 245.894531 244.960938 C 246.019531 245.117188 246.132812 245.277344 246.234375 245.445312 C 246.339844 245.613281 246.433594 245.785156 246.511719 245.964844 C 246.59375 246.144531 246.664062 246.328125 246.722656 246.515625 C 246.78125 246.703125 246.828125 246.894531 246.859375 247.089844 C 246.894531 247.285156 246.914062 247.480469 246.925781 247.675781 C 246.933594 247.875 246.929688 248.070312 246.914062 248.265625 C 246.898438 248.460938 246.867188 248.65625 246.828125 248.851562 C 246.789062 249.042969 246.734375 249.230469 246.667969 249.417969 C 246.605469 249.605469 246.527344 249.785156 246.441406 249.960938 L 243.324219 256.195312 L 243.324219 258.773438 L 244.324219 259.105469 C 244.71875 259.238281 245.125 259.296875 245.542969 259.289062 C 245.957031 259.28125 246.359375 259.199219 246.75 259.050781 C 247.140625 258.902344 247.492188 258.695312 247.808594 258.421875 C 248.125 258.152344 248.386719 257.835938 248.59375 257.476562 C 248.757812 257.191406 248.96875 256.949219 249.226562 256.746094 C 249.488281 256.546875 249.773438 256.402344 250.089844 256.316406 C 250.40625 256.230469 250.726562 256.207031 251.054688 256.25 C 251.378906 256.289062 251.683594 256.390625 251.96875 256.554688 C 252.253906 256.71875 252.496094 256.929688 252.695312 257.1875 C 252.898438 257.445312 253.039062 257.734375 253.125 258.050781 C 253.214844 258.367188 253.234375 258.6875 253.195312 259.015625 C 253.152344 259.339844 253.050781 259.644531 252.886719 259.929688 C 252.644531 260.355469 252.367188 260.757812 252.050781 261.132812 C 251.738281 261.511719 251.398438 261.859375 251.023438 262.179688 C 250.652344 262.496094 250.253906 262.78125 249.832031 263.03125 C 249.410156 263.28125 248.972656 263.496094 248.511719 263.671875 C 248.054688 263.84375 247.585938 263.980469 247.105469 264.074219 C 246.625 264.167969 246.136719 264.222656 245.648438 264.234375 C 245.15625 264.246094 244.671875 264.214844 244.1875 264.140625 C 243.699219 264.070312 243.226562 263.957031 242.761719 263.800781 Z M 233.082031 278.550781 C 232.003906 279.921875 231.335938 281.472656 231.082031 283.199219 C 219.429688 281.15625 210.835938 275.644531 209.058594 269.191406 L 212.101562 269.191406 C 215.121094 271.652344 218.410156 273.675781 221.96875 275.265625 C 225.527344 276.851562 229.234375 277.945312 233.082031 278.550781 Z M 221.074219 237.03125 C 221.074219 236.703125 221.105469 236.382812 221.171875 236.066406 C 221.234375 235.746094 221.328125 235.4375 221.453125 235.136719 C 221.574219 234.835938 221.726562 234.550781 221.910156 234.28125 C 222.089844 234.011719 222.292969 233.761719 222.523438 233.53125 C 222.753906 233.300781 223.003906 233.097656 223.273438 232.917969 C 223.542969 232.734375 223.828125 232.582031 224.128906 232.457031 C 224.429688 232.335938 224.738281 232.242188 225.054688 232.175781 C 225.375 232.113281 225.695312 232.082031 226.019531 232.082031 C 226.34375 232.082031 226.667969 232.113281 226.984375 232.175781 C 227.304688 232.242188 227.613281 232.335938 227.910156 232.457031 C 228.210938 232.582031 228.496094 232.734375 228.765625 232.917969 C 229.035156 233.097656 229.285156 233.300781 229.515625 233.53125 C 229.746094 233.761719 229.949219 234.011719 230.132812 234.28125 C 230.3125 234.550781 230.464844 234.835938 230.589844 235.136719 C 230.710938 235.4375 230.804688 235.746094 230.871094 236.066406 C 230.933594 236.382812 230.964844 236.703125 230.964844 237.03125 C 230.964844 237.355469 230.933594 237.675781 230.871094 237.996094 C 230.804688 238.3125 230.710938 238.621094 230.589844 238.921875 C 230.464844 239.222656 230.3125 239.507812 230.132812 239.777344 C 229.949219 240.046875 229.746094 240.296875 229.515625 240.527344 C 229.285156 240.757812 229.035156 240.964844 228.765625 241.144531 C 228.496094 241.324219 228.210938 241.476562 227.910156 241.601562 C 227.613281 241.726562 227.304688 241.820312 226.984375 241.882812 C 226.667969 241.945312 226.34375 241.976562 226.019531 241.976562 C 225.695312 241.976562 225.375 241.945312 225.054688 241.882812 C 224.738281 241.820312 224.429688 241.726562 224.128906 241.601562 C 223.828125 241.476562 223.542969 241.324219 223.273438 241.144531 C 223.003906 240.964844 222.753906 240.757812 222.523438 240.527344 C 222.292969 240.296875 222.089844 240.046875 221.910156 239.777344 C 221.726562 239.507812 221.574219 239.222656 221.453125 238.921875 C 221.328125 238.621094 221.234375 238.3125 221.171875 237.996094 C 221.105469 237.675781 221.074219 237.355469 221.074219 237.03125 Z M 250.742188 237.03125 C 250.742188 236.703125 250.773438 236.382812 250.835938 236.066406 C 250.898438 235.746094 250.992188 235.4375 251.117188 235.136719 C 251.242188 234.835938 251.394531 234.550781 251.574219 234.28125 C 251.753906 234.011719 251.960938 233.761719 252.191406 233.53125 C 252.417969 233.300781 252.667969 233.097656 252.9375 232.917969 C 253.210938 232.734375 253.492188 232.582031 253.792969 232.457031 C 254.09375 232.335938 254.402344 232.242188 254.722656 232.175781 C 255.039062 232.113281 255.363281 232.082031 255.6875 232.082031 C 256.011719 232.082031 256.332031 232.113281 256.652344 232.175781 C 256.96875 232.242188 257.277344 232.335938 257.578125 232.457031 C 257.878906 232.582031 258.164062 232.734375 258.433594 232.917969 C 258.703125 233.097656 258.953125 233.300781 259.183594 233.53125 C 259.410156 233.761719 259.617188 234.011719 259.796875 234.28125 C 259.976562 234.550781 260.128906 234.835938 260.253906 235.136719 C 260.378906 235.4375 260.472656 235.746094 260.535156 236.066406 C 260.597656 236.382812 260.628906 236.703125 260.628906 237.03125 C 260.628906 237.355469 260.597656 237.675781 260.535156 237.996094 C 260.472656 238.3125 260.378906 238.621094 260.253906 238.921875 C 260.128906 239.222656 259.976562 239.507812 259.796875 239.777344 C 259.617188 240.046875 259.410156 240.296875 259.183594 240.527344 C 258.953125 240.757812 258.703125 240.964844 258.433594 241.144531 C 258.164062 241.324219 257.878906 241.476562 257.578125 241.601562 C 257.277344 241.726562 256.96875 241.820312 256.652344 241.882812 C 256.332031 241.945312 256.011719 241.976562 255.6875 241.976562 C 255.363281 241.976562 255.039062 241.945312 254.722656 241.882812 C 254.402344 241.820312 254.09375 241.726562 253.792969 241.601562 C 253.492188 241.476562 253.210938 241.324219 252.9375 241.144531 C 252.667969 240.964844 252.417969 240.757812 252.191406 240.527344 C 251.960938 240.296875 251.753906 240.046875 251.574219 239.777344 C 251.394531 239.507812 251.242188 239.222656 251.117188 238.921875 C 250.992188 238.621094 250.898438 238.3125 250.835938 237.996094 C 250.773438 237.675781 250.742188 237.355469 250.742188 237.03125 Z M 261.609375 274.316406 C 262.847656 275.449219 263.929688 276.714844 264.851562 278.121094 C 260.421875 280.695312 255.679688 282.386719 250.625 283.195312 C 250.367188 281.464844 249.699219 279.914062 248.617188 278.539062 C 253.160156 277.792969 257.492188 276.386719 261.609375 274.316406 Z M 207.101562 264.242188 L 203.324219 264.242188 C 201.789062 264.246094 200.253906 264.324219 198.726562 264.488281 L 204.929688 261.382812 C 205.609375 262.367188 206.328125 263.324219 207.101562 264.242188 Z M 81.398438 353.199219 C 80.410156 353.199219 79.429688 353.148438 78.449219 353.046875 C 77.46875 352.945312 76.496094 352.789062 75.535156 352.585938 C 74.570312 352.382812 73.617188 352.128906 72.679688 351.828125 C 71.742188 351.527344 70.824219 351.175781 69.921875 350.777344 C 69.019531 350.378906 68.140625 349.933594 67.289062 349.445312 C 66.433594 348.957031 65.605469 348.425781 64.804688 347.847656 C 64.003906 347.273438 63.238281 346.65625 62.5 346 C 61.765625 345.347656 61.066406 344.65625 60.402344 343.925781 C 59.738281 343.199219 59.113281 342.4375 58.527344 341.644531 C 57.941406 340.851562 57.398438 340.03125 56.898438 339.179688 C 56.398438 338.332031 55.945312 337.457031 55.535156 336.558594 C 55.128906 335.664062 54.765625 334.746094 54.453125 333.8125 C 54.140625 332.878906 53.875 331.929688 53.660156 330.96875 C 53.445312 330.007812 53.277344 329.035156 53.164062 328.054688 C 53.050781 327.078125 52.988281 326.09375 52.972656 325.109375 C 52.960938 324.121094 53 323.140625 53.089844 322.15625 L 57.925781 269.296875 L 104.847656 273.625 L 102.132812 303.726562 L 84.488281 303.726562 C 84.160156 303.726562 83.84375 303.789062 83.542969 303.914062 C 83.238281 304.039062 82.972656 304.21875 82.738281 304.449219 C 82.507812 304.679688 82.328125 304.949219 82.203125 305.25 C 82.078125 305.554688 82.015625 305.871094 82.015625 306.199219 C 82.015625 306.527344 82.078125 306.84375 82.203125 307.144531 C 82.328125 307.449219 82.507812 307.714844 82.738281 307.949219 C 82.972656 308.179688 83.238281 308.359375 83.542969 308.484375 C 83.84375 308.609375 84.160156 308.671875 84.488281 308.671875 L 194.96875 308.671875 C 195.449219 308.671875 195.890625 308.542969 196.296875 308.285156 C 196.699219 308.027344 197.003906 307.679688 197.207031 307.246094 L 204.550781 291.492188 C 204.734375 291.105469 204.964844 290.746094 205.246094 290.425781 C 205.53125 290.101562 205.851562 289.824219 206.210938 289.59375 C 206.574219 289.363281 206.960938 289.1875 207.371094 289.066406 C 207.78125 288.945312 208.203125 288.882812 208.632812 288.882812 C 209.003906 288.882812 209.371094 288.929688 209.730469 289.019531 C 210.09375 289.109375 210.4375 289.246094 210.765625 289.421875 C 211.09375 289.597656 211.394531 289.8125 211.667969 290.0625 C 211.941406 290.316406 212.183594 290.597656 212.386719 290.90625 C 212.59375 291.21875 212.753906 291.550781 212.878906 291.902344 C 213 292.253906 213.078125 292.617188 213.109375 292.988281 C 213.144531 293.359375 213.128906 293.726562 213.070312 294.097656 C 213.011719 294.464844 212.90625 294.820312 212.761719 295.160156 L 208.429688 305.21875 C 208.347656 305.40625 208.292969 305.601562 208.257812 305.804688 C 208.226562 306.007812 208.21875 306.210938 208.238281 306.414062 C 208.253906 306.621094 208.296875 306.816406 208.363281 307.011719 C 208.433594 307.207031 208.523438 307.386719 208.632812 307.558594 C 208.746094 307.730469 208.878906 307.886719 209.03125 308.023438 C 209.179688 308.160156 209.347656 308.28125 209.527344 308.375 C 209.707031 308.472656 209.898438 308.546875 210.097656 308.597656 C 210.292969 308.648438 210.496094 308.671875 210.699219 308.671875 L 252.597656 308.671875 C 253.085938 308.671875 253.5625 308.765625 254.015625 308.953125 C 254.46875 309.144531 254.871094 309.410156 255.21875 309.757812 C 255.566406 310.105469 255.832031 310.507812 256.023438 310.964844 C 256.210938 311.417969 256.304688 311.890625 256.304688 312.382812 C 256.304688 312.875 256.210938 313.347656 256.023438 313.804688 C 255.832031 314.257812 255.566406 314.660156 255.21875 315.007812 C 254.871094 315.355469 254.46875 315.621094 254.015625 315.8125 C 253.5625 316 253.085938 316.09375 252.597656 316.09375 L 229.109375 316.09375 C 228.78125 316.09375 228.46875 316.15625 228.164062 316.28125 C 227.859375 316.40625 227.59375 316.585938 227.363281 316.816406 C 227.128906 317.050781 226.953125 317.316406 226.824219 317.621094 C 226.699219 317.921875 226.636719 318.238281 226.636719 318.566406 C 226.636719 318.894531 226.699219 319.210938 226.824219 319.515625 C 226.953125 319.816406 227.128906 320.085938 227.363281 320.316406 C 227.59375 320.546875 227.859375 320.726562 228.164062 320.851562 C 228.46875 320.976562 228.78125 321.042969 229.109375 321.042969 L 257.539062 321.042969 C 258.03125 321.042969 258.503906 321.136719 258.960938 321.324219 C 259.414062 321.511719 259.816406 321.78125 260.164062 322.128906 C 260.511719 322.476562 260.777344 322.878906 260.964844 323.332031 C 261.15625 323.785156 261.25 324.257812 261.25 324.75 C 261.25 325.242188 261.15625 325.71875 260.964844 326.171875 C 260.777344 326.625 260.511719 327.027344 260.164062 327.375 C 259.816406 327.722656 259.414062 327.992188 258.960938 328.179688 C 258.503906 328.367188 258.03125 328.460938 257.539062 328.460938 L 224.164062 328.460938 C 223.839844 328.460938 223.523438 328.523438 223.21875 328.652344 C 222.917969 328.777344 222.648438 328.953125 222.417969 329.1875 C 222.1875 329.417969 222.007812 329.6875 221.882812 329.988281 C 221.757812 330.292969 221.695312 330.609375 221.695312 330.9375 C 221.695312 331.265625 221.757812 331.578125 221.882812 331.882812 C 222.007812 332.1875 222.1875 332.453125 222.417969 332.683594 C 222.648438 332.917969 222.917969 333.097656 223.21875 333.222656 C 223.523438 333.347656 223.839844 333.410156 224.164062 333.410156 L 247.652344 333.410156 C 248.144531 333.410156 248.617188 333.503906 249.070312 333.691406 C 249.523438 333.878906 249.925781 334.148438 250.273438 334.496094 C 250.621094 334.84375 250.890625 335.246094 251.078125 335.699219 C 251.265625 336.15625 251.359375 336.628906 251.359375 337.121094 C 251.359375 337.613281 251.265625 338.085938 251.078125 338.539062 C 250.890625 338.996094 250.621094 339.394531 250.273438 339.742188 C 249.925781 340.09375 249.523438 340.359375 249.070312 340.546875 C 248.617188 340.738281 248.144531 340.832031 247.652344 340.832031 L 224.164062 340.832031 C 223.839844 340.832031 223.523438 340.894531 223.21875 341.019531 C 222.917969 341.144531 222.648438 341.324219 222.417969 341.554688 C 222.1875 341.789062 222.007812 342.054688 221.882812 342.359375 C 221.757812 342.660156 221.695312 342.976562 221.695312 343.304688 C 221.695312 343.632812 221.757812 343.949219 221.882812 344.25 C 222.007812 344.554688 222.1875 344.820312 222.417969 345.054688 C 222.648438 345.285156 222.917969 345.464844 223.21875 345.589844 C 223.523438 345.714844 223.839844 345.777344 224.164062 345.777344 L 242.707031 345.777344 C 243.199219 345.777344 243.671875 345.871094 244.125 346.0625 C 244.582031 346.25 244.980469 346.515625 245.328125 346.863281 C 245.675781 347.214844 245.945312 347.613281 246.132812 348.070312 C 246.320312 348.523438 246.414062 348.996094 246.414062 349.488281 C 246.414062 349.980469 246.320312 350.453125 246.132812 350.910156 C 245.945312 351.363281 245.675781 351.765625 245.328125 352.113281 C 244.980469 352.460938 244.582031 352.730469 244.125 352.917969 C 243.671875 353.105469 243.199219 353.199219 242.707031 353.199219 Z M 310.691406 363.09375 L 88.195312 363.09375 L 88.195312 358.148438 L 310.691406 358.148438 Z M 346.164062 345.691406 C 345.117188 346.871094 343.960938 347.929688 342.695312 348.863281 C 341.425781 349.796875 340.074219 350.589844 338.636719 351.234375 C 337.199219 351.882812 335.714844 352.371094 334.171875 352.703125 C 332.632812 353.035156 331.074219 353.199219 329.5 353.199219 L 250.515625 353.199219 C 251.113281 351.953125 251.394531 350.636719 251.359375 349.253906 C 251.324219 347.871094 250.972656 346.570312 250.308594 345.355469 C 250.898438 345.167969 251.457031 344.921875 251.992188 344.613281 C 252.523438 344.304688 253.019531 343.945312 253.476562 343.53125 C 253.933594 343.117188 254.339844 342.65625 254.699219 342.15625 C 255.054688 341.65625 255.355469 341.121094 255.601562 340.554688 C 255.84375 339.988281 256.027344 339.402344 256.144531 338.800781 C 256.261719 338.195312 256.316406 337.582031 256.304688 336.96875 C 256.292969 336.351562 256.214844 335.742188 256.070312 335.144531 C 255.929688 334.542969 255.726562 333.964844 255.457031 333.410156 L 257.539062 333.410156 C 258.050781 333.410156 258.558594 333.363281 259.0625 333.273438 C 259.5625 333.183594 260.054688 333.046875 260.535156 332.871094 C 261.011719 332.695312 261.472656 332.476562 261.914062 332.214844 C 262.355469 331.957031 262.769531 331.660156 263.15625 331.328125 C 263.542969 330.996094 263.902344 330.632812 264.222656 330.238281 C 264.546875 329.839844 264.835938 329.421875 265.082031 328.972656 C 265.332031 328.527344 265.542969 328.0625 265.707031 327.582031 C 265.875 327.097656 266 326.601562 266.078125 326.097656 C 266.15625 325.59375 266.191406 325.085938 266.179688 324.574219 C 266.171875 324.0625 266.113281 323.554688 266.015625 323.054688 C 265.914062 322.554688 265.773438 322.066406 265.585938 321.589844 C 265.398438 321.113281 265.171875 320.65625 264.902344 320.222656 C 264.636719 319.785156 264.332031 319.378906 263.992188 318.996094 C 263.652344 318.613281 263.28125 318.265625 262.882812 317.949219 C 262.480469 317.632812 262.054688 317.351562 261.601562 317.113281 C 261.152344 316.871094 260.683594 316.671875 260.199219 316.515625 C 260.859375 315.300781 261.210938 314.003906 261.246094 312.617188 C 261.28125 311.234375 261 309.917969 260.402344 308.671875 L 267.5625 308.671875 C 267.761719 308.671875 267.960938 308.648438 268.152344 308.601562 C 268.347656 308.550781 268.535156 308.480469 268.710938 308.386719 C 268.886719 308.296875 269.050781 308.183594 269.203125 308.050781 C 269.351562 307.914062 269.484375 307.765625 269.597656 307.601562 C 269.710938 307.4375 269.804688 307.261719 269.875 307.074219 C 269.945312 306.886719 269.992188 306.691406 270.015625 306.492188 C 270.039062 306.292969 270.039062 306.09375 270.015625 305.894531 C 269.992188 305.695312 269.941406 305.503906 269.871094 305.316406 L 265.671875 294.308594 C 265.554688 294.003906 265.480469 293.695312 265.4375 293.371094 C 265.398438 293.050781 265.398438 292.726562 265.4375 292.40625 C 265.476562 292.085938 265.550781 291.773438 265.667969 291.46875 C 265.78125 291.164062 265.929688 290.878906 266.113281 290.613281 C 266.296875 290.347656 266.511719 290.105469 266.753906 289.890625 C 266.996094 289.675781 267.261719 289.492188 267.546875 289.339844 C 267.832031 289.191406 268.132812 289.074219 268.449219 289 C 268.761719 288.921875 269.082031 288.882812 269.40625 288.882812 C 269.792969 288.882812 270.171875 288.9375 270.542969 289.046875 C 270.914062 289.15625 271.261719 289.320312 271.585938 289.527344 C 271.910156 289.738281 272.195312 289.992188 272.449219 290.285156 C 272.699219 290.582031 272.902344 290.90625 273.058594 291.257812 L 280.136719 307.203125 C 280.335938 307.648438 280.636719 308.003906 281.046875 308.273438 C 281.457031 308.539062 281.90625 308.671875 282.394531 308.671875 L 336.78125 308.671875 C 337.109375 308.671875 337.425781 308.609375 337.730469 308.484375 C 338.03125 308.359375 338.296875 308.179688 338.53125 307.949219 C 338.761719 307.714844 338.941406 307.449219 339.066406 307.144531 C 339.191406 306.84375 339.253906 306.527344 339.253906 306.199219 C 339.253906 305.871094 339.191406 305.554688 339.066406 305.25 C 338.941406 304.949219 338.761719 304.679688 338.53125 304.449219 C 338.296875 304.21875 338.03125 304.039062 337.730469 303.914062 C 337.425781 303.789062 337.109375 303.726562 336.78125 303.726562 L 315.636719 303.726562 L 315.636719 284.976562 C 318.660156 283.382812 321.390625 281.382812 323.820312 278.976562 C 326.25 276.570312 328.277344 273.863281 329.90625 270.855469 L 344.417969 269.433594 L 351.585938 328.246094 C 351.777344 329.808594 351.800781 331.375 351.660156 332.945312 C 351.519531 334.511719 351.214844 336.046875 350.746094 337.550781 C 350.277344 339.054688 349.660156 340.492188 348.886719 341.867188 C 348.113281 343.238281 347.207031 344.511719 346.164062 345.691406 Z M 346.164062 345.691406 " fill="#E1AC33" fill-opacity="1" fill-rule="nonzero"/></svg>